<svg id="Layer_1" data-name="Layer 1" xmlns="http://www.w3.org/2000/svg" viewBox="0 0 107.4 122.88"><defs><style>.cls-1{fill-rule:evenodd;}</style></defs><title>6-speed-manual-transmission</title><path class="cls-1" d="M43.32,39.18V57.89h20.6V39.18a8.64,8.64,0,1,1,9.5,0V57.89H94V39.18a8.64,8.64,0,1,1,9.5,0V62c0,.21,0,.42,0,.64s0,.43,0,.64V85A8.65,8.65,0,1,1,94,85V67.39H73.42V85a8.65,8.65,0,1,1-9.5,0V67.39H43.32V85a8.64,8.64,0,1,1-9.5,0V67.39H8.65A4.74,4.74,0,0,1,3.9,62.64V39.18a8.64,8.64,0,1,1,9.5,0V57.89H33.82V39.18a8.65,8.65,0,1,1,9.5,0Zm-40.77-23V.14H9.38A6.65,6.65,0,0,1,11.32.4a3.64,3.64,0,0,1,1.53.87,4,4,0,0,1,1,1.65,8,8,0,0,1,.36,2.6A7.91,7.91,0,0,1,14,7.25a4.59,4.59,0,0,1-.47,1.24,3.06,3.06,0,0,1-.69.85,5,5,0,0,1-.85.6l2.78,6.21H10.57L8.32,10.63H6.73v5.52ZM6.73,7.31h1.9a1.8,1.8,0,0,0,.6-.09,1.07,1.07,0,0,0,.44-.32,1.35,1.35,0,0,0,.27-.55,3.09,3.09,0,0,0,.09-.8,3,3,0,0,0-.09-.8,1.12,1.12,0,0,0-.27-.51A1.16,1.16,0,0,0,9.23,4a1.82,1.82,0,0,0-.6-.08H6.73V7.31Zm91,115.57a6.23,6.23,0,0,1-2.22-.36,3.35,3.35,0,0,1-1.58-1.21,6.18,6.18,0,0,1-.93-2.39,19.18,19.18,0,0,1-.32-3.82,17.1,17.1,0,0,1,.42-4.13,6.48,6.48,0,0,1,1.24-2.61,4.43,4.43,0,0,1,2-1.35,8,8,0,0,1,2.65-.4c.76,0,1.49,0,2.21.09a11.21,11.21,0,0,1,1.92.34v3.32H99.48a2.42,2.42,0,0,0-2,.73,3.31,3.31,0,0,0-.58,2.07,4.18,4.18,0,0,1,.81-.29,4.84,4.84,0,0,1,.94-.13c.36,0,.8,0,1.34,0a5.26,5.26,0,0,1,2.57.51,2.71,2.71,0,0,1,1.22,1.4,5.86,5.86,0,0,1,.32,2v2.32a4.61,4.61,0,0,1-.5,2.28,3,3,0,0,1-1.44,1.28,5.38,5.38,0,0,1-2.17.41Zm.86-3.75H99a1,1,0,0,0,.56-.13.75.75,0,0,0,.29-.38,2,2,0,0,0,.08-.59v-.6a2,2,0,0,0-.1-.73.62.62,0,0,0-.34-.35,1.94,1.94,0,0,0-.72-.11H96.87a9.13,9.13,0,0,0,.09,1.42,2.32,2.32,0,0,0,.29.89,1.18,1.18,0,0,0,.54.45,2.37,2.37,0,0,0,.81.13Zm-29,3.62v-3H63l-.74-1.88,4.64-11.18h4.26l-3.92,9.52h2.41v-2.37l.8-2.07h3.39v4.44H75.1v2.89l-1.29.65v3Zm-36.59,0v-3.32l5-5.09a10,10,0,0,0,.8-.88,4.18,4.18,0,0,0,.5-.8,1.73,1.73,0,0,0,.19-.79,1.51,1.51,0,0,0-.17-.75,1,1,0,0,0-.53-.42,3,3,0,0,0-.92-.13H33.29v-3.32c.71-.15,1.49-.3,2.36-.44a20.68,20.68,0,0,1,3-.2,7.13,7.13,0,0,1,3,.51,3.14,3.14,0,0,1,1.56,1.53,6.13,6.13,0,0,1,.46,2.48,6.06,6.06,0,0,1-.28,1.92,6.3,6.3,0,0,1-.81,1.62,12.1,12.1,0,0,1-1.28,1.51L38.55,119h5.56v3.75ZM98.68,16.28c-.81,0-1.69-.05-2.66-.14l-2.84-.29V12.53h5.69a1.43,1.43,0,0,0,.93-.23.87.87,0,0,0,.3-.54,3.66,3.66,0,0,0,0-.52v-.67a1.45,1.45,0,0,0-.2-.84.9.9,0,0,0-.79-.3h-1a1.13,1.13,0,0,0-.74.19.85.85,0,0,0-.27.56h-4l.45-10h10V3.89h-6.4l-.11,2.43A1.92,1.92,0,0,1,98,6a7.28,7.28,0,0,1,1-.08h1.63a3.65,3.65,0,0,1,2,.52,3.13,3.13,0,0,1,1.19,1.4,4.86,4.86,0,0,1,.38,2v2.35a4.18,4.18,0,0,1-.61,2.38,3.5,3.5,0,0,1-1.86,1.34,10.14,10.14,0,0,1-3.17.42Zm-29.18,0c-1.15,0-2.26-.05-3.34-.15s-2.07-.25-3-.43V12.33h4.7a7.38,7.38,0,0,0,1.3-.08,1.16,1.16,0,0,0,.64-.28.81.81,0,0,0,.17-.54V11a1,1,0,0,0-.19-.62,1.17,1.17,0,0,0-.57-.36,3.15,3.15,0,0,0-.9-.14l-3.84-.17V6.49l3.65-.23A4,4,0,0,0,69.4,6a.7.7,0,0,0,.41-.69V5.12a1,1,0,0,0-.44-.89A3.37,3.37,0,0,0,67.78,4h-4.4V.61c.94-.16,1.92-.3,3-.44A19.27,19.27,0,0,1,69.48,0a6.08,6.08,0,0,1,2.38.46,3.34,3.34,0,0,1,1.55,1.34,4.41,4.41,0,0,1,.53,2.27V5.16a5.24,5.24,0,0,1-.09,1,2.82,2.82,0,0,1-.32.84,2.34,2.34,0,0,1-.56.66,2.79,2.79,0,0,1-.84.45,2.19,2.19,0,0,1,.9.49,2.77,2.77,0,0,1,.62.78,3.93,3.93,0,0,1,.38,1,5.22,5.22,0,0,1,.13,1.21v.63a3.66,3.66,0,0,1-1.24,3,5.17,5.17,0,0,1-3.42,1Zm-31.74-.13V4H35.22V1.3l3-1.29h3.7V16.15Z"/></svg>