<svg id="Layer_1" data-name="Layer 1" xmlns="http://www.w3.org/2000/svg" viewBox="0 0 83.65 122.88"><defs><style>.cls-1{fill-rule:evenodd;}</style></defs><title>automatic-transmission</title><path class="cls-1" d="M14.87,66.42h5.45V11.05A11.06,11.06,0,0,1,31.37,0h4.95a11.06,11.06,0,0,1,11,11.05V66.42h5.49a3.83,3.83,0,0,1,3.82,3.82V89.63a3.83,3.83,0,0,1-3.82,3.82H47.37v18.38a11.06,11.06,0,0,1-11,11H31.37a11.06,11.06,0,0,1-11-11V93.45H14.87a3.82,3.82,0,0,1-3.81-3.82V87.84H5.8a5.78,5.78,0,0,1-4.09-1.7h0A5.77,5.77,0,0,1,0,82.05V77.82a5.75,5.75,0,0,1,1.7-4.08h0A5.78,5.78,0,0,1,5.8,72h5.26V70.24a3.82,3.82,0,0,1,3.81-3.82Zm10,0h5.59V43.93c0-4.38,6.77-4.38,6.77,0V66.42H42.8V11.05a6.5,6.5,0,0,0-6.48-6.48H31.37a6.52,6.52,0,0,0-6.48,6.48V66.42Zm17.91,27H24.89v18.38a6.52,6.52,0,0,0,6.48,6.48h4.95a6.5,6.5,0,0,0,6.48-6.48V93.45ZM55.14,17.64V14.11h7.19v3.53Zm14.64,4.88V5.5h7.47A8.52,8.52,0,0,1,79,5.69a4.12,4.12,0,0,1,1.69.8A4.19,4.19,0,0,1,82,8.33a9.11,9.11,0,0,1,.47,3.26A10,10,0,0,1,82,14.9a4.43,4.43,0,0,1-1.2,1.88,3.8,3.8,0,0,1-1.59.85,6.57,6.57,0,0,1-1.68.22c-.29,0-.59,0-.91-.05s-.62-.07-.91-.12l-.83-.16-.63-.13v5.13Zm4.45-8.66H76.8a1,1,0,0,0,.72-.25,1.47,1.47,0,0,0,.37-.75,6.72,6.72,0,0,0,.1-1.22,4.45,4.45,0,0,0-.13-1.19,1.53,1.53,0,0,0-.38-.73.92.92,0,0,0-.68-.24H74.23v4.38Zm-19.09,36V46.29h7.19v3.53ZM69.78,54.7v-17h7.27a7.43,7.43,0,0,1,2.06.28,3.84,3.84,0,0,1,1.63.93,4.22,4.22,0,0,1,1.06,1.75,8.41,8.41,0,0,1,.38,2.77A8.24,8.24,0,0,1,82,45.24a4.85,4.85,0,0,1-.49,1.31,3.35,3.35,0,0,1-.74.91,5.65,5.65,0,0,1-.9.64l2.95,6.6H78.31l-2.38-5.86h-1.7V54.7Zm4.45-9.39h2a1.83,1.83,0,0,0,.64-.11,1.18,1.18,0,0,0,.47-.33,1.43,1.43,0,0,0,.28-.58,3.13,3.13,0,0,0,.1-.86,3,3,0,0,0-.1-.85,1.16,1.16,0,0,0-.28-.54,1.2,1.2,0,0,0-.47-.29,2.11,2.11,0,0,0-.64-.09h-2v3.65ZM69.69,86.88v-17h3.53l6,9.49V69.85h4.45v17H80.12l-6-9.49v9.49Zm.09,32.18V102H77.3a6.38,6.38,0,0,1,3,.65,5,5,0,0,1,1.88,1.82,8,8,0,0,1,1,2.72,19.33,19.33,0,0,1,.28,3.33,14.54,14.54,0,0,1-.68,4.87,5.21,5.21,0,0,1-2,2.75,6.23,6.23,0,0,1-3.45.89Zm4.45-4h2.61a1.78,1.78,0,0,0,1.32-.46,2.65,2.65,0,0,0,.66-1.45,14.11,14.11,0,0,0,.2-2.61,15.38,15.38,0,0,0-.15-2.41,3.66,3.66,0,0,0-.44-1.37,1.34,1.34,0,0,0-.68-.6,2.59,2.59,0,0,0-.91-.15H74.23v9Zm-19.09-.89v-3.53h7.19v3.53ZM11.06,83.88V76H5.8a1.83,1.83,0,0,0-1.29.53h0A1.82,1.82,0,0,0,4,77.82v4.23a1.82,1.82,0,0,0,.53,1.29h0a1.8,1.8,0,0,0,1.29.54Z"/></svg>